# AST/ASF file generated using VICON BodyLanguage
# -----------------------------------------------
:version 1.10
:name VICON
:units
  mass 1.0
  length 0.45
  angle deg
:documentation
   .ast/.asf automatically generated from VICON data using
   VICON BodyBuilder and BodyLanguage model FoxedUp or BRILLIANT.MOD
:root
   order TX TY TZ RX RY RZ
   axis XYZ
   position 0 0 0  
   orientation 0 0 0 
:bonedata
  begin
     id 1 
     name lhipjoint
     direction 0.660183 -0.676772 0.325788 
     length 2.75133 
     axis 0 0 0  XYZ
  end
  begin
     id 2 
     name lfemur
     direction 0.34202 -0.939693 0  
     length 7.70317  
     axis 0 0 20  XYZ
    dof rx ry rz
    limits (-160.0 20.0)
           (-70.0 70.0)
           (-60.0 70.0)
  end
  begin
     id 3 
     name ltibia
     direction 0.342105 -0.939662 0   
     length 7.18701   
     axis 0 0 20   XYZ
    dof rx
    limits (-10.0 170.0)
  end
  begin
     id 4 
     name lfoot
     direction 0.14163 -0.389126 0.910232   
     length 2.41719   
     axis -90 7.62852e-016 20   XYZ
    dof rx rz
    limits (-45.0 90.0)
           (-70.0 20.0)
  end
  begin
     id 5 
     name ltoes
     direction 1.53533e-011 -4.21926e-011 1   
     length 1.18611   
     axis -90 7.62852e-016 20   XYZ
    dof rx
    limits (-90.0 20.0)
  end
  begin
     id 6 
     name rhipjoint
     direction -0.6658 -0.67229 0.323631   
     length 2.76968  
     axis 0 0 0  XYZ 
  end
  begin
     id 7 
     name rfemur
     direction -0.34202 -0.939693 0   
     length 7.92547   
     axis 0 0 -20   XYZ
    dof rx ry rz
    limits (-160.0 20.0)
           (-70.0 70.0)
           (-70.0 60.0)
  end
  begin
     id 8 
     name rtibia
     direction -0.342022 -0.939692 0   
     length 7.22641   
     axis 0 0 -20   XYZ
    dof rx
    limits (-10.0 170.0)
 end
 begin
     id 9 
     name rfoot
     direction -0.105675 -0.29034 0.951071   
     length 2.48149  
     axis -90 -7.62852e-016 -20   XYZ
    dof rx rz
    limits (-45.0 90.0)
           (-20.0 70.0)
  end
  begin
     id 10 
     name rtoes
     direction -1.5349e-011 -4.21859e-011 1   
     length 1.23343   
     axis -90 -7.62852e-016 -20   XYZ
    dof rx
    limits (-90.0 20.0)
  end
  begin
     id 11 
     name lowerback
     direction 0.0104173 0.993624 -0.112266   
     length 2.00527   
     axis 0 0 0   XYZ
    dof rx ry rz
    limits (-20.0 45.0)
           (-30.0 30.0)
           (-30.0 30.0)
  end
  begin
     id 12 
     name upperback
     direction 0.00733149 0.999856 -0.0152913   
     length 2.01385   
     axis 0 0 0   XYZ
    dof rx ry rz
    limits (-20.0 45.0)
           (-30.0 30.0)
           (-30.0 30.0)
  end
  begin
     id 13 
     name thorax
     direction 0.0026304 0.999318 0.036841   
     length 2.03734   
     axis 0 0 0   XYZ
    dof rx ry rz
    limits (-20.0 45.0)
           (-30.0 30.0)
           (-30.0 30.0)
  end
  begin
     id 14 
     name lowerneck
     direction 0.0293154 0.998757 0.0403082   
     length 1.65303   
     axis 0 0 0   XYZ
    dof rx ry rz
    limits (-20.0 45.0)
           (-30.0 30.0)
           (-30.0 30.0)
  end
  begin
     id 15 
     name upperneck
     direction -0.0376619 0.998184 -0.0470083   
     length 1.60926   
     axis 0 0 0   XYZ
    dof rx ry rz
    limits (-20.0 45.0)
           (-30.0 30.0)
           (-30.0 30.0)
  end
  begin
     id 16
     name head
     direction -0.0170133 0.999635 -0.0209778  
     length 1.73625  
     axis 0 0 0   XYZ
    dof rx ry rz
    limits (-20.0 45.0)
           (-30.0 30.0)
           (-30.0 30.0)
  end
  begin
     id 17 
     name lclavicle
     direction 0.919857 0.39181 -0.0186333  
     length 3.75313  
     axis 0 0 0   XYZ
    dof ry rz
    limits (-20.0 10.0)
           (0.0 20.0)
  end
  begin
     id 18 
     name lhumerus
     direction 1 -4.48988e-011 1.44029e-027   
     length 5.49313   
     axis 180 -30 -90   XYZ
    dof rx ry rz
    limits (-60.0 90.0)
           (-90.0 90.0)
           (-90.0 90.0)
  end
  begin
     id 19
     name lradius
     direction 1 -4.48924e-011 7.46281e-027   
     length 3.29037   
     axis 180 -30 -90   XYZ
    dof rx
    limits (-10.0 170.0)
  end
  begin
     id 20
     name lwrist
     direction 1 -4.48955e-011 2.19879e-026   
     length 1.64519   
     axis -1.34358e-014 90 90   XYZ
    dof ry
    limits (-180.0 0.0)
 end
  begin
     id 21 
     name lhand
     direction 1 -4.48978e-011 4.39747e-026   
     length 0.729656   
     axis -2.80598e-014 90 90   XYZ
    dof rx rz
    limits (-90.0 90.0)
           (-45.0 45.0)
  end
  begin
     id 22 
     name lfingers
     direction 1 -4.49071e-011 8.79411e-026   
     length 0.588268   
     axis -5.61193e-014 90 90   XYZ
    dof rx
    limits (0.0 90.0)
  end
  begin
     id 23
     name lthumb
     direction 0.707107 -6.34817e-011 0.707107   
     length 0.844638   
     axis -90 45 -9.86923e-015   XYZ
    dof rx rz
    limits (-45.0 45.0)
           (-45.0 45.0)
  end
  begin
     id 24 
     name rclavicle
     direction -0.919898 0.388279 0.0550233   
     length 3.7171  
     axis 0 0 0   XYZ 
    dof ry rz
    limits (-10.0 20.0)
           (-20.0 0.0)
  end
  begin
     id 25 
     name rhumerus
     direction -1 -4.48968e-011 9.98372e-028  
     length 5.23684   
     axis 180 30 90   XYZ
    dof rx ry rz
    limits (-90.0 60.0)
           (-90.0 90.0)
           (-90.0 90.0)
  end
  begin
     id 26 
     name rradius
     direction -1 -4.48956e-011 1.01023e-026   
     length 3.38251   
     axis 180 30 90   XYZ
    dof rx
    limits (-10.0 170.0)
  end
  begin
     id 27 
     name rwrist
     direction -1 -4.4892e-011 2.19886e-026   
     length 1.69126   
     axis -1.34358e-014 -90 -90   XYZ
    dof ry
    limits (-180.0 0.0)
  end
  begin
     id 28
     name rhand
     direction -1 -4.49024e-011 4.39727e-026   
     length 0.691454   
     axis -2.80598e-014 -90 -90   XYZ
    dof rx rz
    limits (-90.0 90.0)
           (-45.0 45.0)
  end
  begin
     id 29
     name rfingers
     direction -1 -4.49097e-011 8.79388e-026   
     length 0.557468   
     axis -5.61193e-014 -90 -90   XYZ
    dof rx
    limits (0.0 90.0)
  end
  begin
     id 30
     name rthumb
     direction -0.707107 -6.34938e-011 0.707107   
     length 0.800416   
     axis -90 -45 9.86923e-015   XYZ
    dof rx rz
    limits (-45.0 45.0)
           (-45.0 45.0)
  end
:hierarchy
  begin
    root lhipjoint rhipjoint lowerback
    lhipjoint lfemur
    lfemur ltibia
    ltibia lfoot
    lfoot ltoes
    rhipjoint rfemur
    rfemur rtibia
    rtibia rfoot
    rfoot rtoes
    lowerback upperback
    upperback thorax
    thorax lowerneck lclavicle rclavicle
    lowerneck upperneck
    upperneck head
    lclavicle lhumerus
    lhumerus lradius
    lradius lwrist
    lwrist lhand lthumb
    lhand lfingers
    rclavicle rhumerus
    rhumerus rradius
    rradius rwrist
    rwrist rhand rthumb
    rhand rfingers
  end

#!OML:ASF H:\BabyWalks\Project 1\Capture day 1\Session 1\baby.ASF
:FULLY-SPECIFIED
:DEGREES
172
root -31.6327 17.6476 -2.99367 -8.54915 74.6013 -19.0446
lowerback 18.974 0.705976 -7.82503
upperback 5.94476 -0.292378 -1.81114
thorax -4.12857 -0.0119423 2.55794
lowerneck -0.144075 2.94104 1.36087
upperneck -9.24494 4.14603 0.402584
head -2.89295 2.06147 -0.208068
rclavicle -3.18055e-015 -3.97569e-014
rhumerus -50.8906 24.165 -90.7145
rradius 48.2416
rwrist -6.67814
rhand -11.5411 -16.9623
rfingers 7.12502
rthumb 14.4992 -46.4357
lclavicle -3.18055e-015 -3.97569e-014
lhumerus -33.6836 -5.90312 69.2977
lradius 61.8504
lwrist 6.5938
lhand -10.6001 11.4543
lfingers 7.12502
lthumb 15.4057 40.8603
rfemur -26.8085 7.16037 18.4325
rtibia 53.4376
rfoot -18.3967 12.6406
rtoes -7.27431
lfemur -13.5366 -1.28487 -15.26
ltibia 31.2092
lfoot -29.5903 -8.33441
ltoes 8.84109
173
root -31.5193 17.6754 -2.98871 -8.21794 74.3126 -18.6465
lowerback 18.9511 0.68481 -7.65167
upperback 5.83786 -0.295188 -1.65209
thorax -4.23427 -0.0126305 2.63133
lowerneck -0.369368 2.98042 1.53389
upperneck -8.84523 4.14631 -0.0860617
head -2.70128 2.07082 -0.382674
rclavicle 1.27222e-014 5.40694e-014
rhumerus -50.8505 24.1279 -90.6539
rradius 47.954
rwrist -6.16996
rhand -11.2003 -16.8256
rfingers 7.12502
rthumb 14.8275 -46.2751
lclavicle 1.27222e-014 5.40694e-014
lhumerus -34.2542 -5.64837 69.7381
lradius 61.749
lwrist 6.6101
lhand -10.8866 11.3016
lfingers 7.12502
lthumb 15.1298 40.7286
rfemur -27.158 7.36502 18.4304
rtibia 52.2921
rfoot -18.3932 12.8542
rtoes -7.81536
lfemur -12.4947 -1.61287 -15.417
ltibia 30.2403
lfoot -29.2118 -7.86172
ltoes 8.6682
174
root -31.4032 17.7029 -2.98316 -7.93792 74.0559 -18.289
lowerback 18.9407 0.65282 -7.45837
upperback 5.72723 -0.308462 -1.47894
thorax -4.34957 -0.0181586 2.71087
lowerneck -0.597305 3.02333 1.73458
upperneck -8.43498 4.15028 -0.639923
head -2.50596 2.0817 -0.580917
rclavicle 4.6118e-014 -4.77083e-015
rhumerus -50.8331 24.1082 -90.5842
rradius 47.6981
rwrist -5.72158
rhand -10.7888 -16.6748
rfingers 7.12502
rthumb 15.2239 -46.0946
lclavicle 4.6118e-014 -4.77083e-015
lhumerus -34.8606 -5.40105 70.2048
lradius 61.6101
lwrist 6.62164
lhand -11.096 11.0901
lfingers 7.12502
lthumb 14.928 40.5322
rfemur -27.4346 7.54503 18.4466
rtibia 51.0247
rfoot -18.3795 13.0286
rtoes -8.23254
lfemur -11.4605 -1.95758 -15.5796
ltibia 29.3077
lfoot -28.805 -7.4172
ltoes 8.40867
175
root -31.2873 17.7153 -2.97682 -7.71503 73.8366 -17.9844
lowerback 18.9386 0.607034 -7.23963
upperback 5.61147 -0.334642 -1.29246
thorax -4.47363 -0.0297856 2.79322
lowerneck -0.820818 3.07072 1.96661
upperneck -8.01702 4.1601 -1.2617
head -2.30933 2.09487 -0.804636
rclavicle 4.69132e-014 3.81667e-014
rhumerus -50.8412 24.1059 -90.5085
rradius 47.4768
rwrist -5.35329
rhand -10.3273 -16.5361
rfingers 7.12502
rthumb 15.6684 -45.9216
lclavicle 4.69132e-014 3.81667e-014
lhumerus -35.4995 -5.17129 70.6935
lradius 61.4332
lwrist 6.63766
lhand -11.2203 10.827
lfingers 7.12502
lthumb 14.8083 40.2779
rfemur -27.6712 7.70441 18.4789
rtibia 49.6923
rfoot -18.4372 13.1513
rtoes -8.62485
lfemur -10.4796 -2.30197 -15.7388
ltibia 28.4648
lfoot -28.3843 -7.02982
ltoes 8.11188
176
root -31.1674 17.7364 -2.96984 -7.54906 73.6612 -17.7391
lowerback 18.9356 0.547771 -6.99486
upperback 5.49056 -0.372143 -1.09086
thorax -4.60179 -0.0469792 2.8796
lowerneck -1.0363 3.11804 2.23237
upperneck -7.59767 4.17052 -1.95553
head -2.11418 2.10751 -1.05624
rclavicle 1.19271e-014 1.59028e-015
rhumerus -50.87 24.1117 -90.4201
rradius 47.2805
rwrist -5.07063
rhand -9.8316 -16.3817
rfingers 7.12502
rthumb 16.1458 -45.7292
lclavicle 1.19271e-014 1.59028e-015
lhumerus -36.1717 -4.96148 71.2079
lradius 61.2332
lwrist 6.64788
lhand -11.2579 10.5436
lfingers 7.12502
lthumb 14.772 39.9971
rfemur -27.7942 7.85456 18.5297
rtibia 48.2473
rfoot -18.5604 13.2347
rtoes -8.92266
lfemur -9.53033 -2.63402 -15.8942
ltibia 27.6859
lfoot -27.9719 -6.71071
ltoes 7.75144
177
root -31.0453 17.7543 -2.96201 -7.40056 73.5351 -17.5203
lowerback 18.9134 0.475409 -6.73248
upperback 5.36763 -0.420345 -0.877768
thorax -4.72092 -0.0698982 2.97065
lowerneck -1.2398 3.1634 2.53635
upperneck -7.18135 4.18006 -2.72107
head -1.92253 2.11858 -1.33773
rclavicle -2.46493e-014 3.02153e-014
rhumerus -50.9116 24.1175 -90.3146
rradius 47.104
rwrist -4.88218
rhand -9.3181 -16.2238
rfingers 7.12502
rthumb 16.6402 -45.5305
lclavicle -2.46493e-014 3.02153e-014
lhumerus -36.8609 -4.77807 71.7458
lradius 61.0037
lwrist 6.64316
lhand -11.1939 10.2405
lfingers 7.12502
lthumb 14.8337 39.6896
rfemur -27.8666 8.0068 18.578
rtibia 46.7559
rfoot -18.7111 13.3084
rtoes -9.04331
lfemur -8.65276 -2.92959 -16.0507
ltibia 27.0155
lfoot -27.5758 -6.50457
ltoes 7.43235
178
root -30.9214 17.7691 -2.95312 -7.27694 73.4626 -17.343
lowerback 18.8604 0.390509 -6.45026
upperback 5.24446 -0.477252 -0.652473
thorax -4.82325 -0.0978712 3.06526
lowerneck -1.42719 3.20346 2.88623
upperneck -6.77807 4.18494 -3.56407
head -1.73773 2.12609 -1.65433
rclavicle 2.54444e-014 -4.77083e-015
rhumerus -50.9604 24.1106 -90.1868
rradius 46.9438
rwrist -4.77654
rhand -8.80975 -16.0704
rfingers 7.12502
rthumb 17.1296 -45.3353
lclavicle 2.54444e-014 -4.77083e-015
lhumerus -37.5555 -4.62889 72.3087
lradius 60.7469
lwrist 6.61365
lhand -11.0291 9.94718
lfingers 7.12502
lthumb 14.9925 39.3844
rfemur -27.8862 8.17637 18.6221
rtibia 45.2053
rfoot -18.8698 13.3564
rtoes -9.0047
lfemur -7.82073 -3.18502 -16.1994
ltibia 26.3772
lfoot -27.1628 -6.40796
ltoes 7.17134
179
root -30.7956 17.7804 -2.94302 -7.16756 73.4439 -17.1953
lowerback 18.7741 0.294899 -6.15102
upperback 5.12153 -0.541287 -0.417927
thorax -4.90701 -0.130132 3.16132
lowerneck -1.59282 3.23597 3.28616
upperneck -6.39262 4.18298 -4.4828
head -1.56155 2.12888 -2.00876
rclavicle 1.90833e-014 1.74931e-014
rhumerus -51.0078 24.0797 -90.0342
rradius 46.7821
rwrist -4.74128
rhand -8.32678 -15.8948
rfingers 7.12502
rthumb 17.5944 -45.1187
lclavicle 1.90833e-014 1.74931e-014
lhumerus -38.2515 -4.51876 72.8945
lradius 60.4657
lwrist 6.55523
lhand -10.7651 9.69164
lfingers 7.12502
lthumb 15.2467 39.1098
rfemur -27.8696 8.37363 18.6558
rtibia 43.6632
rfoot -19.065 13.3657
rtoes -8.85039
lfemur -7.0646 -3.39212 -16.3414
ltibia 25.8427
lfoot -26.7839 -6.41919
ltoes 6.93695
180
root -30.6683 17.7888 -2.93157 -7.06551 73.4788 -17.0718
lowerback 18.6506 0.189763 -5.83865
upperback 5.00119 -0.6117 -0.17546
thorax -4.96747 -0.166419 3.25917
lowerneck -1.73285 3.25813 3.73687
upperneck -6.03946 4.17098 -5.4755
head -1.39852 2.12565 -2.40353
rclavicle 5.32743e-014 3.65764e-014
rhumerus -51.0511 24.0224 -89.8567
rradius 46.6218
rwrist -4.76209
rhand -7.89716 -15.6894
rfingers 7.12502
rthumb 18.0078 -44.8757
lclavicle 5.32743e-014 3.65764e-014
lhumerus -38.9333 -4.44649 73.502
lradius 60.1574
lwrist 6.46875
lhand -10.4086 9.4772
lfingers 7.12502
lthumb 15.5901 38.8689
rfemur -27.8284 8.60735 18.6753
rtibia 42.1572
rfoot -19.2794 13.3331
rtoes -8.64606
lfemur -6.38247 -3.53845 -16.4734
ltibia 25.4029
lfoot -26.4476 -6.54176
ltoes 6.68603
181
root -30.5395 17.7942 -2.91864 -6.95011 73.5599 -16.946
lowerback 18.4918 0.0810417 -5.52149
upperback 4.88584 -0.682993 0.0711661
thorax -5.00354 -0.203954 3.35807
lowerneck -1.838 3.26661 4.24424
upperneck -5.73407 4.14442 -6.54429
head -1.25462 2.11468 -2.84361
rclavicle -2.18663e-014 5.56597e-015
rhumerus -51.0817 23.9291 -89.6527
rradius 46.4522
rwrist -4.81903
rhand -7.53946 -15.4542
rfingers 7.12502
rthumb 18.3519 -44.6085
lclavicle -2.18663e-014 5.56597e-015
lhumerus -39.5936 -4.41366 74.1301
lradius 59.8212
lwrist 6.35349
lhand -9.96279 9.30343
lfingers 7.12502
lthumb 16.0195 38.6611
rfemur -27.7625 8.89195 18.6713
rtibia 40.71
rfoot -19.4903 13.2553
rtoes -8.43437
lfemur -5.76707 -3.61412 -16.6003
ltibia 25.0576
lfoot -26.1362 -6.77903
ltoes 6.49848
182
root -30.4093 17.7976 -2.90411 -6.79523 73.6861 -16.7855
lowerback 18.3043 -0.0289433 -5.20745
upperback 4.77536 -0.754803 0.316565
thorax -5.01871 -0.2423 3.45654
lowerneck -1.8992 3.25544 4.79471
upperneck -5.49073 4.0956 -7.66977
head -1.13698 2.093 -3.32319
rclavicle 3.65764e-014 -2.14687e-014
rhumerus -51.113 23.8012 -89.4303
rradius 46.2893
rwrist -4.89888
rhand -7.27753 -15.1763
rfingers 7.12502
rthumb 18.6039 -44.3067
lclavicle 3.65764e-014 -2.14687e-014
lhumerus -40.2271 -4.41975 74.7733
lradius 59.4547
lwrist 6.2109
lhand -9.45077 9.16051
lfingers 7.12502
lthumb 16.5125 38.4779
rfemur -27.6817 9.22982 18.6333
rtibia 39.3446
rfoot -19.6752 13.1536
rtoes -8.1579
lfemur -5.21273 -3.60974 -16.7289
ltibia 24.8046
lfoot -25.8476 -7.12856
ltoes 6.32877
183
root -30.2782 17.7975 -2.88754 -6.63172 73.8583 -16.6162
lowerback 18.0938 -0.139857 -4.89204
upperback 4.67207 -0.826444 0.560936
thorax -5.01358 -0.281069 3.55203
lowerneck -1.90838 3.22148 5.38239
upperneck -5.32026 4.0198 -8.83878
head -1.05188 2.05927 -3.83946
rclavicle 1.27222e-014 -1.11319e-014
rhumerus -51.1537 23.6402 -89.1973
rradius 46.1497
rwrist -4.98407
rhand -7.13453 -14.8789
rfingers 7.12502
rthumb 18.7414 -43.996
lclavicle 1.27222e-014 -1.11319e-014
lhumerus -40.8284 -4.46335 75.427
lradius 59.0605
lwrist 6.04654
lhand -8.87703 9.05241
lfingers 7.12502
lthumb 17.0648 38.3229
rfemur -27.569 9.6196 18.5754
rtibia 38.0787
rfoot -19.8506 12.9975
rtoes -7.95436
lfemur -4.71692 -3.51705 -16.845
ltibia 24.6496
lfoot -25.5807 -7.60134
ltoes 6.19192
